<svg id="_x31__x2C_5_px" enable-background="new 0 0 24 24" height="512" viewBox="0 0 24 24" width="512" xmlns="http://www.w3.org/2000/svg"><path d="m16.25 24h-8.5c-.414 0-.75-.336-.75-.75s.336-.75.75-.75h8.5c.414 0 .75.336.75.75s-.336.75-.75.75z"/><path d="m17.061 13h-10.122c-.518 0-1.006-.228-1.339-.624-.334-.396-.474-.916-.385-1.426l1.652-9.5c.146-.84.871-1.45 1.724-1.45h6.817c.854 0 1.579.61 1.724 1.451l1.652 9.5c.089.51-.051 1.03-.385 1.426-.332.395-.82.623-1.338.623zm-8.47-11.5c-.122 0-.226.087-.247.207l-1.652 9.5c-.017.1.027.17.055.204s.09.089.191.089h10.122c.102 0 .164-.056.191-.089.028-.033.072-.104.055-.204l-1.652-9.5c-.02-.12-.123-.207-.245-.207z"/><path d="m12 24c-.414 0-.75-.336-.75-.75v-4.5c0-.414.336-.75.75-.75s.75.336.75.75v4.5c0 .414-.336.75-.75.75z"/><path d="m19.25 19.5h-14.5c-.414 0-.75-.336-.75-.75v-2c0-1.517 1.233-2.75 2.75-2.75h10.5c1.517 0 2.75 1.233 2.75 2.75v2c0 .414-.336.75-.75.75zm-13.75-1.5h13v-1.25c0-.689-.561-1.25-1.25-1.25h-10.5c-.689 0-1.25.561-1.25 1.25z"/><path d="m19.25 18.25c-.414 0-.75-.336-.75-.75v-3c0-1.517 1.233-2.75 2.75-2.75.414 0 .75.336.75.75s-.336.75-.75.75c-.689 0-1.25.561-1.25 1.25v3c0 .414-.336.75-.75.75z"/><path d="m4.75 18.25c-.414 0-.75-.336-.75-.75v-3c0-.689-.561-1.25-1.25-1.25-.414 0-.75-.336-.75-.75s.336-.75.75-.75c1.517 0 2.75 1.233 2.75 2.75v3c0 .414-.336.75-.75.75z"/></svg>